<svg id="Layer_1" data-name="Layer 1" xmlns="http://www.w3.org/2000/svg" viewBox="0 0 57 57"><defs><style>.cls-1{fill:#fff;}.cls-2{fill:#22303b;}</style></defs><g id="Apetools_Icon_2" data-name="Apetools Icon 2"><g id="Ellipse_9" data-name="Ellipse 9"><path class="cls-1" d="M28.55,57.05a28.5,28.5,0,1,1,28.5-28.5A28.54,28.54,0,0,1,28.55,57.05Zm0-55a26.5,26.5,0,1,0,26.5,26.5A26.53,26.53,0,0,0,28.55,2.05Z" transform="translate(-0.05 -0.05)"/></g><g id="Path_10" data-name="Path 10"><path class="cls-1" d="M25.82,47.47h0c-5.69-.49-10.41-3.61-12.26-7.84a9.75,9.75,0,0,1-.85-4c0-4.31,2.83-8.08,7.06-10.17l.19-.09a2,2,0,0,1,.4-3.94,8.23,8.23,0,0,1,16,0,2,2,0,0,1,.47,3.93,1.85,1.85,0,0,1-.47,0c-.06.24-.12.47-.2.7A8.23,8.23,0,0,1,31,31.2a2,2,0,0,0-1.13.93c-.72,1.23-1.92,3.85-1,6.38a9.74,9.74,0,0,1,3.16-3.35c2.54-1.55,6.38-1.06,6.46,2.52a7.64,7.64,0,0,1-2,5.35,16.64,16.64,0,0,0,5.14-4.67c6.94-9.78.89-25.29-13.07-25.69A16.29,16.29,0,0,0,12.86,23.89a1.19,1.19,0,1,1-2.26-.72h0C17.42,3.42,46.19,7.54,47,28.69,47.22,40.8,36.33,48.8,25.82,47.47Z" transform="translate(-0.05 -0.05)"/></g><g id="Path_11" data-name="Path 11"><path class="cls-2" d="M28.56,21.12a.22.22,0,0,1-.24.21.23.23,0,0,1-.21-.21,3.31,3.31,0,1,0-3.74,4.42,1.32,1.32,0,0,1,1,1.3v.6a2.26,2.26,0,0,0,2.26,2.26H29a2.26,2.26,0,0,0,2.26-2.26v-.6a1.32,1.32,0,0,1,1-1.3,3.3,3.3,0,1,0-3.73-4.42ZM26.5,23.69h0l-.13,0h0l-.13,0-.13,0H25.9a2.68,2.68,0,0,1-1.52-.48A2.74,2.74,0,0,1,24,23a2.48,2.48,0,0,1-.25-.3,3.45,3.45,0,0,1-.2-.32.76.76,0,0,1,0-.66.7.7,0,0,1,.17-.25.79.79,0,0,1,.67-.23,2.68,2.68,0,0,1,1.49.74l.1.1.07.09a2.48,2.48,0,0,1,.19.26l.06.09v0a.93.93,0,0,0,.05.1,0,0,0,0,0,0,0l.05.1s0,0,0,0,0,.07,0,.1,0,.09,0,.13a2.34,2.34,0,0,1,.09.38s0,.05,0,.07,0,.06,0,.08A.17.17,0,0,1,26.5,23.69Zm2.62,3.44H29l-.07,0-.14.05a.09.09,0,0,0-.06,0l-.07,0-.07.05h0l-.06.07-.05.05,0,0a.17.17,0,0,1-.14,0l-.05,0h0l0,0a0,0,0,0,1,0,0l-.07-.08-.14-.1-.05,0-.09,0-.05,0-.08,0h-.14v-.37h0v-.22a1.1,1.1,0,0,1,0-.18,2.14,2.14,0,0,1,.06-.35.43.43,0,0,1,0-.11c0-.1,0-.2.08-.3l0-.12a2,2,0,0,1,.1-.26,1.51,1.51,0,0,1,.06-.15L28,25c0-.08.07-.16.11-.23s.09-.16.12-.22h0v0a.13.13,0,0,1,.18,0,.1.1,0,0,1,.05.06,3.44,3.44,0,0,1,.31.64,1.17,1.17,0,0,1,.05.11l.05.15a1,1,0,0,1,.05.16l.05.17c0,.07,0,.14,0,.2a1.36,1.36,0,0,1,0,.17h0a.69.69,0,0,0,0,.2c0,.07,0,.14,0,.21h0c0,.07,0,.14,0,.22V27c0,.08,0,.09,0,.14Zm4-4.79a2.51,2.51,0,0,1-.32.48.86.86,0,0,1-.13.14,2.74,2.74,0,0,1-.36.32,2.63,2.63,0,0,1-1.51.48h-.19l-.14,0h-.15l-.11,0h0a.15.15,0,0,1-.11-.15h0a.59.59,0,0,1,0-.14,1.27,1.27,0,0,1,.06-.28c0-.05,0-.09,0-.14v0s0-.08,0-.12l.12-.25a2,2,0,0,1,.34-.49l.1-.1a0,0,0,0,1,0,0,1.75,1.75,0,0,1,.33-.28,2.62,2.62,0,0,1,1.15-.45.75.75,0,0,1,.67.22.9.9,0,0,1,.17.26.76.76,0,0,1,0,.61Z" transform="translate(-0.05 -0.05)"/></g><g id="Path_12" data-name="Path 12"><path class="cls-1" d="M26.61,23.52a.16.16,0,0,1-.11.17h0l-.13,0h0l-.13,0-.13,0H25.9a2.64,2.64,0,0,1-1.52-.48A3.65,3.65,0,0,1,24,23a3.31,3.31,0,0,1-.25-.3,2.9,2.9,0,0,1-.2-.33.76.76,0,0,1,0-.66.85.85,0,0,1,.17-.25.79.79,0,0,1,.68-.23,2.62,2.62,0,0,1,1.48.74l.1.1.07.09a1.24,1.24,0,0,1,.19.26l.06.09v0a.31.31,0,0,1,.05.1l0,0,.05.1a.08.08,0,0,0,0,0l0,.1s0,.09.05.13a2.34,2.34,0,0,1,.09.38.17.17,0,0,0,0,.07A.27.27,0,0,1,26.61,23.52Z" transform="translate(-0.05 -0.05)"/></g><g id="Path_13" data-name="Path 13"><path class="cls-1" d="M33.12,22.34a2.51,2.51,0,0,1-.32.48.86.86,0,0,1-.13.14,2.74,2.74,0,0,1-.36.32,2.63,2.63,0,0,1-1.51.48h-.19l-.14,0h-.15l-.11,0h0a.15.15,0,0,1-.11-.15h0a.59.59,0,0,1,0-.14,1.5,1.5,0,0,1,.06-.29.93.93,0,0,1,0-.13v0s0-.08,0-.12l.12-.25a2.34,2.34,0,0,1,.33-.49l.1-.1,0,0a1.75,1.75,0,0,1,.33-.28,2.62,2.62,0,0,1,1.15-.45.76.76,0,0,1,.67.22.9.9,0,0,1,.17.26.76.76,0,0,1,0,.61Z" transform="translate(-0.05 -0.05)"/></g><g id="Path_14" data-name="Path 14"><path class="cls-1" d="M29.12,27v.14H29l-.07,0-.14.05-.06,0-.07,0-.07.06h0a.1.1,0,0,0-.05.06l-.06.05a.16.16,0,0,1-.16.05l-.05,0h0l0,0a0,0,0,0,1,0,0,.72.72,0,0,0-.21-.18l-.05,0-.08,0-.06,0-.08,0h-.14v-.36h0v-.22a.52.52,0,0,1,0-.18,3.4,3.4,0,0,1,.08-.46c0-.1,0-.2.08-.3A4.44,4.44,0,0,1,28,25a2.4,2.4,0,0,0,.11-.23c0-.07.09-.16.12-.22h0v0c.22-.31.48.5.6.77,0,.05,0,.1.05.15a1.42,1.42,0,0,1,0,.16c0,.06,0,.12.05.17s.05.25.08.37h0c0,.13,0,.27,0,.4h0A1.71,1.71,0,0,1,29.12,27Z" transform="translate(-0.05 -0.05)"/></g><g id="Path_15" data-name="Path 15"><path class="cls-1" d="M36.58,24.57a.08.08,0,0,1-.09-.06v0a7.79,7.79,0,0,0,.07-1.07,7.59,7.59,0,0,0-.07-1.07.08.08,0,0,1,.06-.09h0a1.18,1.18,0,0,1,.9,1.4,1.17,1.17,0,0,1-.9.91Z" transform="translate(-0.05 -0.05)"/></g><g id="Path_16" data-name="Path 16"><path class="cls-1" d="M20.12,23.42a6.77,6.77,0,0,0,.07,1,.13.13,0,0,1-.1.13h0a1.19,1.19,0,0,1-.84-1.45,1.18,1.18,0,0,1,.84-.83.1.1,0,0,1,.13.08.06.06,0,0,1,0,0A7,7,0,0,0,20.12,23.42Z" transform="translate(-0.05 -0.05)"/></g></g></svg>